<svg width="32" height="24" viewBox="0 0 32 24" fill="none" xmlns="http://www.w3.org/2000/svg">
<path d="M23.6764 9.54033L17.2459 15.9854C16.9146 16.315 16.4668 16.5 16 16.5C15.5332 16.5 15.0854 16.315 14.7541 15.9854L8.3236 9.53228C8.11062 9.3032 7.99468 9.0002 8.00019 8.68713C8.0057 8.37406 8.13224 8.07536 8.35315 7.85395C8.57405 7.63254 8.87208 7.50571 9.18445 7.50019C9.49681 7.49466 9.79912 7.61087 10.0277 7.82434L15.7074 13.5395C15.7447 13.577 15.7891 13.6068 15.8379 13.6271C15.8868 13.6474 15.9391 13.6578 15.992 13.6578C16.0448 13.6578 16.0972 13.6474 16.146 13.6271C16.1948 13.6068 16.2392 13.577 16.2765 13.5395L21.9723 7.83239C22.2009 7.61893 22.5032 7.50272 22.8156 7.50824C23.1279 7.51377 23.4259 7.64059 23.6469 7.862C23.8678 8.08341 23.9943 8.38212 23.9998 8.69519C24.0053 9.00826 23.8894 9.31125 23.6764 9.54033Z" fill="#7B9972"/>
</svg>
