<svg xmlns="http://www.w3.org/2000/svg" fill="none" overflow="visible" viewBox="0 0 114.74 33"><g fill="#FFF"><path d="M18.37 14.9a14.2 14.2 0 0 0-3.67-2.15 10.38 10.38 0 0 0-6.41-.64c-.76.14-1.47.45-2.09.9a2 2 0 0 0-.87 1.8c0 .68.32 1.33.87 1.74.7.48 1.47.84 2.29 1.05.98.28 2.07.54 3.2.78 1.14.25 2.3.54 3.4.88 1.06.27 2.08.7 3.02 1.28a6.39 6.39 0 0 1 2.2 2.01c.58.9.87 1.96.82 3.03a5.99 5.99 0 0 1-1.42 4.03 8.7 8.7 0 0 1-3.66 2.52c-1.57.6-3.24.89-4.92.87-2.1.01-4.2-.32-6.2-.97A11.02 11.02 0 0 1 0 28.64l3.2-2.84a11.72 11.72 0 0 0 3.4 2.44 11.35 11.35 0 0 0 6.96.59 5.6 5.6 0 0 0 2.1-.92c.59-.45.91-1.15.88-1.88a2.02 2.02 0 0 0-.87-1.7c-.71-.46-1.5-.8-2.34-.98-1.04-.28-2.1-.53-3.16-.73a46.67 46.67 0 0 1-4.66-1.3 8.87 8.87 0 0 1-3.57-2.25A6.12 6.12 0 0 1 .59 14.9a5.51 5.51 0 0 1 1.33-3.66A8.7 8.7 0 0 1 5.6 8.88a14.1 14.1 0 0 1 5.04-.87c1.23.01 2.46.15 3.66.42 1.27.24 2.5.65 3.67 1.23a9.25 9.25 0 0 1 3.02 2.2l-2.6 3.04Zm13.53 8.62c.57.8 1.18 1.55 1.83 2.28.75.8 1.61 1.49 2.57 2.02 1.06.57 2.24.85 3.44.82A8.7 8.7 0 0 0 43 28a6.49 6.49 0 0 0 2.75-2 5.52 5.52 0 0 0 1.1-3.53 4.82 4.82 0 0 0-3.25-4.9 7.57 7.57 0 0 0-2.9-.55c-.9 0-1.81.12-2.7.37-.8.2-1.6.44-2.38.73l-1.5-3.4 9.43-9.64H29.83V.47h20.2l.91 2.38-9.25 9.65a10.1 10.1 0 0 1 8.51 4.71 9.14 9.14 0 0 1 1.38 4.95 9.96 9.96 0 0 1-1.7 5.77 10.98 10.98 0 0 1-4.4 3.76c-1.85.9-3.9 1.34-5.95 1.3-1.7.04-3.4-.25-5-.86a12.5 12.5 0 0 1-3.7-2.47 21.85 21.85 0 0 1-2.8-3.45ZM70.34 33c-2.07.02-4.12-.47-5.96-1.43a10.92 10.92 0 0 1-5.9-9.9c.02-1.62.32-3.23.88-4.76.63-1.72 1.42-3.4 2.33-5a54.26 54.26 0 0 1 3.08-4.7L69.65.37h5.23l.18.45-6.31 8.5c-.5.68-1 1.37-1.47 2.07a9.07 9.07 0 0 1 2.07-.6 11.6 11.6 0 0 1 2.34-.22 10.63 10.63 0 0 1 9.12 5.21 10.1 10.1 0 0 1 1.42 5.28c.02 2.07-.48 4.12-1.47 5.95a11.2 11.2 0 0 1-4.09 4.36A12 12 0 0 1 70.34 33Zm0-4.59c1.2 0 2.37-.26 3.45-.77a6.49 6.49 0 0 0 2.75-9.03 6.85 6.85 0 0 0-6.1-3.44 7.72 7.72 0 0 0-3.84.92 6.69 6.69 0 0 0-2.46 2.38 6.1 6.1 0 0 0-.87 3.16c0 1.17.28 2.32.83 3.35a6.9 6.9 0 0 0 2.47 2.47c1.15.66 2.45 1 3.77.96ZM102 33a11.7 11.7 0 0 1-7.1-2.1 13.26 13.26 0 0 1-4.3-5.87 23.03 23.03 0 0 1-1.48-8.52c-.05-2.9.45-5.8 1.47-8.52.85-2.3 2.35-4.33 4.3-5.82A11.51 11.51 0 0 1 102 .01a11 11 0 0 1 6.96 2.15 12.96 12.96 0 0 1 4.3 5.82 23.04 23.04 0 0 1 1.48 8.52c.05 2.9-.45 5.8-1.47 8.52a13.26 13.26 0 0 1-4.3 5.86A11.22 11.22 0 0 1 102 33Zm0-4.49a6.64 6.64 0 0 0 5.82-3.09c1.43-2.09 2.14-5.06 2.14-8.9 0-3.86-.7-6.82-2.1-8.9a6.66 6.66 0 0 0-5.82-3.11 6.9 6.9 0 0 0-6 3.12c-1.41 2.07-2.11 5.03-2.11 8.88 0 3.86.69 6.83 2.07 8.91a6.9 6.9 0 0 0 6 3.09Z"/><path d="M29.5 5.07h18.94l2.11-2.2L49.64.5H29.5Z" opacity=".65"/></g></svg>